<svg width="24" height="24" viewBox="0 0 24 24" fill="none" xmlns="http://www.w3.org/2000/svg">
<path d="M2.14645 16.8536L2.5 16.5L2.5 16.5L2.14645 16.8536ZM21.8536 16.8536L21.5 16.5V16.5L21.8536 16.8536ZM20 7C20 6.72386 19.7761 6.5 19.5 6.5C19.2239 6.5 19 6.72386 19 7H20ZM22 10C22.2761 10 22.5 9.77614 22.5 9.5C22.5 9.22386 22.2761 9 22 9V10ZM19 17C19 17.2761 19.2239 17.5 19.5 17.5C19.7761 17.5 20 17.2761 20 17H19ZM22 15C22.2761 15 22.5 14.7761 22.5 14.5C22.5 14.2239 22.2761 14 22 14V15ZM5 7C5 6.72386 4.77614 6.5 4.5 6.5C4.22386 6.5 4 6.72386 4 7H5ZM2 9C1.72386 9 1.5 9.22386 1.5 9.5C1.5 9.77614 1.72386 10 2 10V9ZM4 17C4 17.2761 4.22386 17.5 4.5 17.5C4.77614 17.5 5 17.2761 5 17H4ZM2 14C1.72386 14 1.5 14.2239 1.5 14.5C1.5 14.7761 1.72386 15 2 15V14ZM3 7.5H21V6.5H3V7.5ZM21.5 8V16H22.5V8H21.5ZM21 16.5H3V17.5H21V16.5ZM2.5 16V8H1.5V16H2.5ZM3 16.5C2.75016 16.5 2.61308 16.4989 2.51799 16.4862C2.43728 16.4753 2.46484 16.4648 2.5 16.5L1.79289 17.2071C1.9745 17.3887 2.19314 17.4515 2.38474 17.4772C2.56196 17.5011 2.77843 17.5 3 17.5V16.5ZM1.5 16C1.5 16.2216 1.49894 16.438 1.52276 16.6153C1.54852 16.8069 1.61129 17.0255 1.79289 17.2071L2.5 16.5C2.53516 16.5352 2.5247 16.5627 2.51385 16.482C2.50106 16.3869 2.5 16.2498 2.5 16H1.5ZM21.5 16C21.5 16.2498 21.4989 16.3869 21.4862 16.482C21.4753 16.5627 21.4648 16.5352 21.5 16.5L22.2071 17.2071C22.3887 17.0255 22.4515 16.8069 22.4772 16.6153C22.5011 16.438 22.5 16.2216 22.5 16H21.5ZM21 17.5C21.2216 17.5 21.438 17.5011 21.6153 17.4772C21.8069 17.4515 22.0255 17.3887 22.2071 17.2071L21.5 16.5C21.5352 16.4648 21.5627 16.4753 21.482 16.4862C21.3869 16.4989 21.2498 16.5 21 16.5V17.5ZM21 7.5C21.2498 7.5 21.3869 7.50106 21.482 7.51385C21.5627 7.5247 21.5352 7.53516 21.5 7.5L22.2071 6.79289C22.0255 6.61129 21.8069 6.54852 21.6153 6.52276C21.438 6.49894 21.2216 6.5 21 6.5V7.5ZM22.5 8C22.5 7.77843 22.5011 7.56196 22.4772 7.38474C22.4515 7.19314 22.3887 6.9745 22.2071 6.79289L21.5 7.5C21.4648 7.46484 21.4753 7.43727 21.4862 7.51799C21.4989 7.61308 21.5 7.75016 21.5 8H22.5ZM3 6.5C2.77843 6.5 2.56196 6.49894 2.38474 6.52276C2.19314 6.54852 1.9745 6.61129 1.79289 6.79289L2.5 7.5C2.46484 7.53516 2.43728 7.5247 2.51799 7.51385C2.61308 7.50106 2.75016 7.5 3 7.5V6.5ZM2.5 8C2.5 7.75016 2.50106 7.61308 2.51385 7.51799C2.5247 7.43728 2.53516 7.46484 2.5 7.5L1.79289 6.79289C1.61129 6.9745 1.54852 7.19314 1.52276 7.38474C1.49894 7.56196 1.5 7.77843 1.5 8H2.5ZM19 7V7.83333H20V7H19ZM21.1667 10H22V9H21.1667V10ZM19 7.83333C19 9.02995 19.97 10 21.1667 10V9C20.5223 9 20 8.47767 20 7.83333H19ZM20 17V16.1667H19V17H20ZM21.1667 15H22V14H21.1667V15ZM20 16.1667C20 15.5223 20.5223 15 21.1667 15V14C19.97 14 19 14.9701 19 16.1667H20ZM4 7V7.83333H5V7H4ZM2.83333 9H2V10H2.83333V9ZM4 7.83333C4 8.47767 3.47767 9 2.83333 9V10C4.02995 10 5 9.02995 5 7.83333H4ZM5 17V16.1667H4V17H5ZM2.83333 14H2V15H2.83333V14ZM5 16.1667C5 14.9701 4.02995 14 2.83333 14V15C3.47767 15 4 15.5223 4 16.1667H5ZM14.5 12C14.5 13.3807 13.3807 14.5 12 14.5V15.5C13.933 15.5 15.5 13.933 15.5 12H14.5ZM12 14.5C10.6193 14.5 9.5 13.3807 9.5 12H8.5C8.5 13.933 10.067 15.5 12 15.5V14.5ZM9.5 12C9.5 10.6193 10.6193 9.5 12 9.5V8.5C10.067 8.5 8.5 10.067 8.5 12H9.5ZM12 9.5C13.3807 9.5 14.5 10.6193 14.5 12H15.5C15.5 10.067 13.933 8.5 12 8.5V9.5Z" fill="#464455"/>
</svg>
